<svg width="20" height="18" viewBox="0 0 20 18" fill="none" xmlns="http://www.w3.org/2000/svg">
<path d="M19.7954 9.07695C19.7954 9.87552 19.0652 10.5144 18.1525 10.5144H11.5807V15.9446C11.5807 16.7432 10.8505 17.382 9.93771 17.382C9.02495 17.382 8.29475 16.7432 8.29475 15.9446V10.5144H2.08803C1.17527 10.5144 0.445068 9.87552 0.445068 9.07695C0.445068 8.27839 1.17527 7.63954 2.08803 7.63954H8.29475V1.88987C8.29475 1.09131 9.02495 0.452454 9.93771 0.452454C10.8505 0.452454 11.5807 1.09131 11.5807 1.88987V7.63954H18.1525C19.0652 7.63954 19.7954 8.27839 19.7954 9.07695Z" fill="white"/>
</svg>
