<svg width="22" height="22" viewBox="0 0 22 22" fill="none" xmlns="http://www.w3.org/2000/svg">
<path fill-rule="evenodd" clip-rule="evenodd" d="M1.65 2.75C1.65 3.35753 2.14247 3.85 2.75 3.85C3.35753 3.85 3.85 3.35753 3.85 2.75C3.85 2.14247 3.35753 1.65 2.75 1.65C2.14247 1.65 1.65 2.14247 1.65 2.75ZM2.75 0C1.23123 0 0 1.23123 0 2.75C0 4.26877 1.23123 5.5 2.75 5.5C4.26877 5.5 5.5 4.26877 5.5 2.75C5.5 1.23123 4.26877 0 2.75 0ZM1.65 11C1.65 11.6075 2.14247 12.1 2.75 12.1C3.35753 12.1 3.85 11.6075 3.85 11C3.85 10.3925 3.35753 9.9 2.75 9.9C2.14247 9.9 1.65 10.3925 1.65 11ZM2.75 8.25C1.23123 8.25 0 9.48123 0 11C0 12.5188 1.23123 13.75 2.75 13.75C4.26877 13.75 5.5 12.5188 5.5 11C5.5 9.48123 4.26877 8.25 2.75 8.25ZM1.65 19.25C1.65 19.8575 2.14247 20.35 2.75 20.35C3.35753 20.35 3.85 19.8575 3.85 19.25C3.85 18.6425 3.35753 18.15 2.75 18.15C2.14247 18.15 1.65 18.6425 1.65 19.25ZM2.75 16.5C1.23123 16.5 0 17.7312 0 19.25C0 20.7688 1.23123 22 2.75 22C4.26877 22 5.5 20.7688 5.5 19.25C5.5 17.7312 4.26877 16.5 2.75 16.5ZM9.9 2.75C9.9 3.35753 10.3925 3.85 11 3.85C11.6075 3.85 12.1 3.35753 12.1 2.75C12.1 2.14247 11.6075 1.65 11 1.65C10.3925 1.65 9.9 2.14247 9.9 2.75ZM11 0C9.48123 0 8.25 1.23123 8.25 2.75C8.25 4.26877 9.48123 5.5 11 5.5C12.5188 5.5 13.75 4.26877 13.75 2.75C13.75 1.23123 12.5188 0 11 0ZM9.9 11C9.9 11.6075 10.3925 12.1 11 12.1C11.6075 12.1 12.1 11.6075 12.1 11C12.1 10.3925 11.6075 9.9 11 9.9C10.3925 9.9 9.9 10.3925 9.9 11ZM11 8.25C9.48123 8.25 8.25 9.48123 8.25 11C8.25 12.5188 9.48123 13.75 11 13.75C12.5188 13.75 13.75 12.5188 13.75 11C13.75 9.48123 12.5188 8.25 11 8.25ZM9.9 19.25C9.9 19.8575 10.3925 20.35 11 20.35C11.6075 20.35 12.1 19.8575 12.1 19.25C12.1 18.6425 11.6075 18.15 11 18.15C10.3925 18.15 9.9 18.6425 9.9 19.25ZM11 16.5C9.48123 16.5 8.25 17.7312 8.25 19.25C8.25 20.7688 9.48123 22 11 22C12.5188 22 13.75 20.7688 13.75 19.25C13.75 17.7312 12.5188 16.5 11 16.5ZM18.15 2.75C18.15 3.35753 18.6425 3.85 19.25 3.85C19.8575 3.85 20.35 3.35753 20.35 2.75C20.35 2.14247 19.8575 1.65 19.25 1.65C18.6425 1.65 18.15 2.14247 18.15 2.75ZM19.25 0C17.7312 0 16.5 1.23123 16.5 2.75C16.5 4.26877 17.7312 5.5 19.25 5.5C20.7688 5.5 22 4.26877 22 2.75C22 1.23123 20.7688 0 19.25 0ZM18.15 11C18.15 11.6075 18.6425 12.1 19.25 12.1C19.8575 12.1 20.35 11.6075 20.35 11C20.35 10.3925 19.8575 9.9 19.25 9.9C18.6425 9.9 18.15 10.3925 18.15 11ZM19.25 8.25C17.7312 8.25 16.5 9.48123 16.5 11C16.5 12.5188 17.7312 13.75 19.25 13.75C20.7688 13.75 22 12.5188 22 11C22 9.48123 20.7688 8.25 19.25 8.25ZM18.15 19.25C18.15 19.8575 18.6425 20.35 19.25 20.35C19.8575 20.35 20.35 19.8575 20.35 19.25C20.35 18.6425 19.8575 18.15 19.25 18.15C18.6425 18.15 18.15 18.6425 18.15 19.25ZM19.25 16.5C17.7312 16.5 16.5 17.7312 16.5 19.25C16.5 20.7688 17.7312 22 19.25 22C20.7688 22 22 20.7688 22 19.25C22 17.7312 20.7688 16.5 19.25 16.5Z" fill="white"/>
</svg>
