<svg width="20" height="28" viewBox="0 0 20 28" fill="none" xmlns="http://www.w3.org/2000/svg">
<path d="M10 17.5C12.8455 17.5 15.1515 15.15 15.1515 12.25V5.25C15.1515 2.35 12.8455 0 10 0C7.15455 0 4.84848 2.35 4.84848 5.25V12.25C4.84848 15.15 7.15455 17.5 10 17.5ZM20 12.1875C20 12.05 19.8909 11.9375 19.7576 11.9375H17.9394C17.8061 11.9375 17.697 12.05 17.697 12.1875C17.697 16.5719 14.2515 20.125 10 20.125C5.74849 20.125 2.30303 16.5719 2.30303 12.1875C2.30303 12.05 2.19394 11.9375 2.06061 11.9375H0.242424C0.109091 11.9375 0 12.05 0 12.1875C0 17.4594 3.83636 21.8094 8.78788 22.425V25.625H4.38485C3.9697 25.625 3.63636 26.0719 3.63636 26.625V27.75C3.63636 27.8875 3.72121 28 3.82424 28H16.1758C16.2788 28 16.3636 27.8875 16.3636 27.75V26.625C16.3636 26.0719 16.0303 25.625 15.6152 25.625H11.0909V22.4406C16.1 21.8781 20 17.5031 20 12.1875Z" fill="#F5F5F5"/>
</svg>
