<svg width="30" height="33" viewBox="0 0 30 33" fill="none" xmlns="http://www.w3.org/2000/svg">
<path d="M15.9941 30.877L15.9932 30.878C15.4834 31.2382 14.8867 31.4523 14.2676 31.5L14.001 31.5098H13.999C13.3748 31.5101 12.7637 31.3416 12.2305 31.0235L12.0068 30.878L12.0059 30.877H15.9941ZM14 4.25002C16.4152 4.25002 18.7376 5.14941 20.5195 6.76272L20.8691 7.09573C22.6906 8.91738 23.7138 11.3878 23.7139 13.9639V19.4912C23.7143 19.9275 23.8166 20.3579 24.0117 20.7481V20.749L26.7002 26.126V26.127C26.7271 26.1808 26.7431 26.2392 26.748 26.2989L26.75 26.3594C26.7473 26.4196 26.7327 26.4786 26.708 26.5332L26.6797 26.5869C26.6373 26.6555 26.5773 26.7117 26.5068 26.751C26.454 26.7804 26.3965 26.8 26.3369 26.8076L26.2773 26.8115H1.72266C1.66228 26.8115 1.60257 26.7997 1.54688 26.7774L1.49316 26.751C1.4403 26.7215 1.39333 26.6825 1.35547 26.6358L1.32031 26.5869C1.28848 26.5354 1.26712 26.4783 1.25684 26.419L1.25 26.3594C1.24728 26.2989 1.25645 26.2385 1.27637 26.1817L1.2998 26.127L3.98926 20.749L3.99023 20.7481C4.16078 20.4059 4.2595 20.0329 4.28125 19.6524L4.28613 19.4893V13.9639C4.28622 11.5487 5.18539 9.22625 6.79883 7.44436L7.13086 7.09573C8.95263 5.27396 11.4236 4.25002 14 4.25002Z" stroke="#F5F5F5" stroke-width="2.5"/>
<circle cx="22.0798" cy="8.76001" r="7.92017" fill="#FD0100"/>
<path d="M20.0205 12.2568L22.4717 6.71484H19.3809V5.11816H24.5322V6.25586L22.0176 12.2568H20.0205Z" fill="white"/>
</svg>
