<svg width="34" height="34" viewBox="0 0 34 34" fill="none" xmlns="http://www.w3.org/2000/svg">
<path d="M30.2821 25.699C30.2821 26.1879 30.1735 26.6903 29.9426 27.1792C29.7117 27.6681 29.413 28.1298 29.0192 28.5644C28.3538 29.2977 27.6204 29.8273 26.7921 30.1668C25.9773 30.5063 25.0946 30.6828 24.144 30.6828C22.7588 30.6828 21.2786 30.3569 19.717 29.6915C18.1553 29.0261 16.5936 28.1298 15.0455 27.0027C13.4838 25.862 12.0036 24.599 10.5913 23.2003C9.19255 21.788 7.92962 20.3078 6.80249 18.7597C5.68894 17.2116 4.79267 15.6635 4.14084 14.129C3.489 12.5808 3.16309 11.1006 3.16309 9.68833C3.16309 8.7649 3.32604 7.88221 3.65196 7.06742C3.97788 6.23905 4.49391 5.47857 5.21365 4.79958C6.08276 3.94405 7.03335 3.52307 8.03826 3.52307C8.4185 3.52307 8.79873 3.60455 9.13823 3.76751C9.49131 3.93047 9.80365 4.17491 10.0481 4.52798L13.1986 8.9686C13.4431 9.3081 13.6196 9.62044 13.7418 9.91919C13.864 10.2044 13.9319 10.4895 13.9319 10.7476C13.9319 11.0735 13.8369 11.3994 13.6467 11.7117C13.4702 12.0241 13.2122 12.35 12.8863 12.6759L11.8542 13.7487C11.7048 13.8981 11.6369 14.0746 11.6369 14.2919C11.6369 14.4006 11.6505 14.4956 11.6777 14.6042C11.7184 14.7129 11.7591 14.7944 11.7863 14.8758C12.0307 15.324 12.4517 15.9079 13.0492 16.6141C13.6603 17.3202 14.3122 18.04 15.0183 18.7597C15.7516 19.4794 16.4578 20.1448 17.1775 20.7559C17.8837 21.3534 18.4676 21.7608 18.9293 22.0053C18.9972 22.0324 19.0787 22.0732 19.1738 22.1139C19.2824 22.1547 19.391 22.1682 19.5133 22.1682C19.7441 22.1682 19.9207 22.0868 20.07 21.9374L21.1021 20.9189C21.4416 20.5794 21.7675 20.3214 22.0799 20.1584C22.3922 19.9683 22.7045 19.8732 23.044 19.8732C23.302 19.8732 23.5736 19.9276 23.8724 20.0498C24.1712 20.172 24.4835 20.3485 24.823 20.5794L29.3179 23.7707C29.671 24.0151 29.9154 24.3003 30.0648 24.6398C30.2006 24.9793 30.2821 25.3188 30.2821 25.699Z" stroke="white" stroke-width="2.03698" stroke-miterlimit="10"/>
</svg>
