<svg width="24" height="24" viewBox="0 0 24 24" fill="none" xmlns="http://www.w3.org/2000/svg">
<path d="M23.6 21.7078L19.0692 17.1903C20.5311 15.328 21.3243 13.0282 21.3213 10.6607C21.3213 8.55218 20.6961 6.49105 19.5247 4.73792C18.3533 2.98478 16.6883 1.61838 14.7403 0.811499C12.7923 0.00461906 10.6488 -0.206497 8.58087 0.204846C6.5129 0.61619 4.61336 1.63152 3.12244 3.12244C1.63152 4.61336 0.61619 6.5129 0.204846 8.58087C-0.206497 10.6488 0.00461906 12.7923 0.811499 14.7403C1.61838 16.6883 2.98478 18.3533 4.73792 19.5247C6.49105 20.6961 8.55218 21.3213 10.6607 21.3213C13.0282 21.3243 15.328 20.5311 17.1903 19.0692L21.7078 23.6C21.8316 23.7249 21.979 23.8241 22.1414 23.8917C22.3038 23.9594 22.478 23.9942 22.6539 23.9942C22.8298 23.9942 23.004 23.9594 23.1664 23.8917C23.3288 23.8241 23.4761 23.7249 23.6 23.6C23.7249 23.4761 23.8241 23.3288 23.8917 23.1664C23.9594 23.004 23.9942 22.8298 23.9942 22.6539C23.9942 22.478 23.9594 22.3038 23.8917 22.1414C23.8241 21.979 23.7249 21.8316 23.6 21.7078ZM2.66517 10.6607C2.66517 9.0793 3.13409 7.53345 4.01265 6.2186C4.89121 4.90375 6.13993 3.87895 7.60092 3.27379C9.0619 2.66863 10.6695 2.51029 12.2205 2.8188C13.7715 3.12731 15.1961 3.8888 16.3143 5.00699C17.4325 6.12518 18.194 7.54984 18.5025 9.10081C18.811 10.6518 18.6527 12.2594 18.0475 13.7204C17.4424 15.1814 16.4176 16.4301 15.1027 17.3087C13.7879 18.1872 12.242 18.6561 10.6607 18.6561C8.54012 18.6561 6.50644 17.8138 5.00699 16.3143C3.50755 14.8149 2.66517 12.7812 2.66517 10.6607Z" fill="white"/>
</svg>
