<svg width="24" height="24" viewBox="0 0 24 24" fill="none" xmlns="http://www.w3.org/2000/svg">
<path d="M22.0218 12.0028C22.0217 10.6895 22.8433 9.5686 24 9.12398C23.6988 7.86291 23.1996 6.65757 22.521 5.5528C22.1258 5.72829 21.6982 5.81887 21.2659 5.81867C20.4771 5.81867 19.6885 5.51799 19.0864 4.91605C18.1575 3.98711 17.9459 2.61318 18.4502 1.48043C17.3457 0.801368 16.1406 0.301688 14.8796 0C14.4357 1.15806 13.3142 1.98062 12 1.98062C10.6859 1.98062 9.56444 1.15806 9.12044 0C7.8595 0.301683 6.65437 0.801386 5.54994 1.4805C6.05419 2.61312 5.84262 3.98699 4.91362 4.91611C4.31169 5.51805 3.523 5.8188 2.73419 5.8188C2.30179 5.81897 1.87417 5.72837 1.479 5.55286C0.800379 6.65759 0.301184 7.86293 0 9.12398C1.15681 9.56847 1.97825 10.6895 1.97825 12.0028C1.97825 13.3158 1.1575 14.4363 0.0013752 14.8812C0.303212 16.1421 0.802995 17.3472 1.48212 18.4517C1.87642 18.2771 2.30291 18.187 2.73413 18.1872C3.523 18.1872 4.31156 18.488 4.91356 19.0899C5.84113 20.0174 6.0535 21.3887 5.552 22.5204C6.65654 23.1992 7.86171 23.6986 9.12263 24C9.56813 22.8451 10.688 22.0253 12 22.0253C13.312 22.0253 14.4319 22.8449 14.8773 24C16.1383 23.6986 17.3435 23.1992 18.4481 22.5203C17.9466 21.3887 18.1589 20.0174 19.0866 19.0899C19.6884 18.4879 20.4771 18.1871 21.2658 18.1871C21.6931 18.1871 22.1202 18.2753 22.5179 18.4517C23.197 17.3472 23.6968 16.1421 23.9986 14.8812C22.8425 14.4363 22.0218 13.3157 22.0218 12.0028ZM12.0562 16.9937C9.2875 16.9937 7.05625 14.75 7.05625 11.9937C7.05625 9.23741 9.2875 6.99373 12.0562 6.99373C14.8249 6.99373 17.0562 9.23741 17.0562 11.9937C17.0562 14.75 14.8249 16.9937 12.0562 16.9937Z" fill="#717173"/>
</svg>
