<svg width="147" height="58" viewBox="0 0 147 58" fill="none" xmlns="http://www.w3.org/2000/svg">
<path d="M14.3129 9.65431V17.5026C13.8758 17.3333 13.4156 17.2315 12.948 17.2006C12.6494 17.197 12.3535 17.2558 12.079 17.3734C11.8046 17.4909 11.5578 17.6645 11.3544 17.8831C11.1388 18.1003 10.9688 18.3585 10.8545 18.6424C10.7403 18.9263 10.684 19.2303 10.689 19.5363C10.689 20.088 10.9313 20.7869 11.4158 21.6332L12.0403 22.7217C13.1698 24.6838 13.7345 26.5787 13.7345 28.4066C13.7345 31.0807 12.7836 33.3453 10.8818 35.2005C8.98003 37.0556 6.65625 37.9815 3.91049 37.9781C2.55597 37.9695 1.22028 37.6601 0 37.0721V29.1078C0.780279 29.6071 1.47241 29.8568 2.07638 29.8568C2.72651 29.8782 3.36177 29.6596 3.86101 29.2426C4.08796 29.0569 4.2701 28.8224 4.39387 28.5565C4.51764 28.2906 4.57986 28.0003 4.57589 27.7071C4.57589 27.3044 4.19314 26.424 3.42765 25.0659C2.20491 22.9139 1.59297 20.7602 1.59184 18.6048C1.59184 16.0114 2.516 13.7769 4.36433 11.9013C6.21266 10.0257 8.42041 9.08843 10.9876 9.08957C12.1199 9.09001 13.244 9.28092 14.3129 9.65431Z" fill="white"/>
<path d="M27.4178 27.7787V20.56C29.0705 20.56 29.8968 19.9287 29.8968 18.6662C29.8968 17.5094 29.2655 16.931 28.003 16.931C26.7404 16.931 26.1018 17.7272 26.087 19.3196V37.3024H17.8975V20.1574C17.8975 18.383 18.0755 16.9282 18.4315 15.793C18.8115 14.62 19.4348 13.5404 20.2605 12.6247C21.2644 11.5063 22.5022 10.6226 23.886 10.0365C25.3027 9.41255 26.8337 9.09008 28.3817 9.08957C31.1776 9.08957 33.5263 10.0302 35.4281 11.9115C37.3299 13.7929 38.2808 16.1246 38.2808 18.9067C38.2808 21.6093 37.4277 23.8 35.7216 25.4788C34.1633 27.0246 31.8105 27.7975 28.6633 27.7975L27.4178 27.7787Z" fill="white"/>
<path d="M56.3472 20.473V26.6151H51.0138C50.2887 26.6151 49.7734 26.7226 49.4783 26.9376C49.1831 27.1526 49.0244 27.516 49.0244 28.0261C49.0244 28.6045 49.1797 28.9833 49.4885 29.1658C49.7973 29.3484 50.4286 29.4371 51.384 29.4371H56.8864V37.3007H50.4405C47.4173 37.3007 45.1054 36.5779 43.505 35.1322C41.9047 33.6866 41.1051 31.5982 41.1062 28.8673V18.0844C41.1062 15.4501 41.8626 13.4073 43.3754 11.9559C44.8882 10.5045 47.0146 9.77773 49.7547 9.77545H56.871V17.6783H51.6502C50.2387 17.6783 49.5329 18.1333 49.5329 19.0433C49.5329 19.5801 49.7035 19.9532 50.0447 20.1625C50.3859 20.3718 50.9814 20.4753 51.8311 20.473H56.3472Z" fill="white"/>
<path d="M76.2462 20.473V26.6151H70.9025C70.178 26.6151 69.6661 26.7226 69.367 26.9376C69.0678 27.1526 68.9171 27.5154 68.9148 28.0261C68.9148 28.6045 69.0684 28.9833 69.3772 29.1658C69.686 29.3484 70.319 29.4371 71.2727 29.4371H76.7768V37.3007H70.3395C67.315 37.3007 65.0032 36.5779 63.404 35.1322C61.8047 33.6865 61.0051 31.5982 61.0051 28.8672V18.0844C61.0051 15.4501 61.761 13.4073 63.2726 11.9559C64.7842 10.5045 66.9112 9.77885 69.6536 9.77885H76.7768V17.6817H71.556C70.1433 17.6817 69.4375 18.1367 69.4386 19.0467C69.4386 19.5835 69.6064 19.9566 69.9419 20.1659C70.2775 20.3752 70.8735 20.4775 71.73 20.473H76.2462Z" fill="white"/>
<path d="M89.653 17.6783V37.299H81.4635V9.77545H92.132C96.8092 9.77545 100.472 10.8372 103.12 12.9608C106.259 15.4996 107.831 18.9466 107.837 23.3018C107.837 27.4682 106.493 30.8686 103.804 33.5029C101.115 36.1372 97.6543 37.4543 93.4219 37.4543C92.9248 37.4543 92.1116 37.4276 90.9821 37.3741V29.2904H92.2924C97.0696 29.2904 99.4554 27.2942 99.4497 23.3018C99.4497 19.5483 97.1043 17.6715 92.4136 17.6715L89.653 17.6783Z" fill="white"/>
<path d="M124.73 9.08957C128.629 9.08957 131.972 10.5074 134.76 13.343C137.548 16.1786 138.942 19.5721 138.944 23.5236C138.944 27.5433 137.539 30.9556 134.729 33.7605C131.92 36.5654 128.508 37.9696 124.492 37.973C120.5 37.973 117.093 36.562 114.271 33.74C111.449 30.918 110.038 27.5109 110.038 23.5185C110.038 19.4874 111.46 16.0751 114.303 13.2816C117.147 10.488 120.622 9.09071 124.73 9.08957ZM124.489 17.1938C123.683 17.1829 122.884 17.3425 122.144 17.6621C121.404 17.9817 120.739 18.4541 120.195 19.0484C119.053 20.2595 118.419 21.8614 118.42 23.5256C118.422 25.1898 119.061 26.7903 120.205 27.9988C120.756 28.5836 121.421 29.0497 122.159 29.3686C122.897 29.6875 123.692 29.8525 124.496 29.8534C125.3 29.8544 126.096 29.6913 126.834 29.3742C127.573 29.057 128.239 28.5925 128.792 28.0091C129.369 27.4157 129.822 26.7136 130.125 25.9435C130.428 25.1735 130.575 24.3509 130.558 23.5236C130.575 22.6962 130.428 21.8737 130.125 21.1036C129.822 20.3336 129.369 19.6315 128.792 19.0381C128.245 18.4449 127.579 17.9739 126.838 17.6561C126.096 17.3382 125.296 17.1807 124.489 17.1938Z" fill="white"/>
<path d="M143.433 11.4304L127.77 0.557125C127.302 0.232395 126.755 0.0418535 126.186 0.00614304C125.618 -0.0295674 125.051 0.0909143 124.546 0.354537C124.041 0.618159 123.618 1.01487 123.323 1.5017C123.027 1.98852 122.871 2.5469 122.87 3.11635V9.16465C123.936 9.05886 126.071 8.95308 128.14 9.46151V7.22817L137.886 13.9896L128.14 20.7545V15.4501C128.123 14.7628 127.838 14.1096 127.345 13.6297C126.853 13.1497 126.193 12.8812 125.505 12.8812C124.818 12.8812 124.157 13.1497 123.665 13.6297C123.173 14.1096 122.887 14.7628 122.87 15.4501V24.868C122.87 25.438 123.025 25.9971 123.321 26.4847C123.616 26.9722 124.039 27.3695 124.544 27.6334C125.049 27.8972 125.617 28.0175 126.186 27.9812C126.755 27.9448 127.303 27.7532 127.77 27.4273L143.433 16.554C143.845 16.2667 144.182 15.8839 144.415 15.4383C144.647 14.9927 144.769 14.4974 144.769 13.9948C144.769 13.4921 144.647 12.9968 144.415 12.5512C144.182 12.1056 143.845 11.7228 143.433 11.4355V11.4304Z" fill="url(#paint0_radial_0_15)"/>
<path d="M89.0781 57.3258H84.4237V46.978C84.4237 45.0796 84.9213 43.5327 85.9166 42.3373C86.5119 41.6325 87.2583 41.071 88.1005 40.6943C88.9524 40.2983 89.8806 40.0934 90.8201 40.0937C92.6695 40.0937 94.2289 40.7159 95.4983 41.9602C96.1156 42.55 96.6036 43.2616 96.9313 44.0499C97.2591 44.8382 97.4195 45.686 97.4024 46.5395C97.4116 47.3871 97.2487 48.2277 96.9235 49.0105C96.5982 49.7932 96.1174 50.5018 95.5103 51.0932C94.2488 52.3717 92.756 53.0104 91.0316 53.0092C90.7507 53.0092 90.3361 52.9802 89.7878 52.9222V47.7867C90.1043 48.0686 90.5091 48.2315 90.9327 48.2474C91.1647 48.2499 91.3947 48.2036 91.6078 48.1116C91.8209 48.0197 92.0123 47.884 92.1696 47.7134C92.3352 47.5465 92.4658 47.3483 92.5537 47.1303C92.6416 46.9123 92.685 46.679 92.6815 46.444C92.6846 46.2096 92.6385 45.9773 92.5463 45.7618C92.454 45.5464 92.3175 45.3528 92.1457 45.1934C91.977 45.027 91.7768 44.896 91.5568 44.8081C91.3367 44.7202 91.1013 44.6771 90.8644 44.6815C89.6701 44.6815 89.073 45.5067 89.073 47.1571L89.0781 57.3258Z" fill="#FD0100"/>
<path d="M106.249 40.2097V45.1866C105.982 45.0211 105.678 44.9271 105.365 44.9136C104.521 44.9136 104.098 45.5602 104.097 46.8535V52.7397H99.4429V45.9577C99.4429 44.1663 99.9325 42.7377 100.912 41.6719C101.891 40.6061 103.199 40.0732 104.836 40.0732C105.31 40.0839 105.782 40.1295 106.249 40.2097Z" fill="#FD0100"/>
<path d="M112.265 40.3343V52.7397H107.617V40.3343H112.265ZM109.958 34.8047C110.261 34.8015 110.562 34.8589 110.843 34.9735C111.124 35.088 111.379 35.2574 111.594 35.4718C111.809 35.6748 111.98 35.9188 112.099 36.1894C112.217 36.4601 112.28 36.7517 112.284 37.0471C112.287 37.3425 112.231 37.6356 112.119 37.9089C112.007 38.1823 111.841 38.4304 111.632 38.6384C111.167 39.0403 110.573 39.2616 109.958 39.2616C109.343 39.2616 108.749 39.0403 108.284 38.6384C108.074 38.4306 107.908 38.1826 107.796 37.9092C107.683 37.6358 107.627 37.3426 107.631 37.0471C107.634 36.7516 107.697 36.4598 107.816 36.1891C107.935 35.9185 108.107 35.6745 108.322 35.4718C108.536 35.2571 108.791 35.0875 109.072 34.9729C109.353 34.8584 109.654 34.8012 109.958 34.8047Z" fill="#FD0100"/>
<path d="M132.03 52.7397H127.378V46.0447C127.378 45.5318 127.321 45.1752 127.207 44.975C127.149 44.8742 127.062 44.7924 126.958 44.7395C126.855 44.6865 126.738 44.6646 126.622 44.6764C126.1 44.6764 125.839 45.1371 125.839 46.0584V52.7397H121.193V46.0447C121.193 45.5318 121.136 45.1752 121.022 44.975C120.962 44.8744 120.874 44.7929 120.769 44.7401C120.665 44.6872 120.547 44.6652 120.43 44.6764C119.917 44.6764 119.66 45.1371 119.659 46.0584V52.7397H115.008V45.0995C114.995 44.4436 115.112 43.7915 115.354 43.1816C115.596 42.5716 115.957 42.016 116.416 41.5473C116.85 41.0776 117.378 40.7047 117.966 40.4527C118.554 40.2008 119.188 40.0756 119.828 40.0852C121.205 40.0852 122.441 40.6658 123.535 41.8271C124.756 40.6647 125.975 40.084 127.193 40.0852C128.744 40.0852 129.988 40.6493 130.926 41.7777C131.666 42.6569 132.035 43.9382 132.034 45.6216L132.03 52.7397Z" fill="#FD0100"/>
<path d="M146.951 47.2903H139.894C139.66 46.5708 139.682 45.7925 139.957 45.0876H142.322C142.155 44.1663 141.636 43.7056 140.766 43.7056C140.487 43.7021 140.211 43.768 139.964 43.8972C139.716 44.0264 139.505 44.215 139.348 44.4461C138.983 44.9386 138.8 45.571 138.8 46.3433C138.8 47.1486 138.977 47.7998 139.329 48.2969C139.478 48.529 139.683 48.7194 139.926 48.8502C140.169 48.9809 140.441 49.0477 140.716 49.0442C141.18 49.0442 141.629 48.8121 142.059 48.3481L144.71 51.5249C143.546 52.474 142.089 52.9912 140.587 52.9888C138.744 52.9888 137.197 52.3706 135.946 51.1342C134.695 49.8978 134.069 48.3674 134.069 46.543C134.051 45.6859 134.211 44.8344 134.537 44.0417C134.864 43.2491 135.35 42.5323 135.966 41.9364C136.576 41.3239 137.303 40.8418 138.104 40.5192C138.906 40.1965 139.764 40.0402 140.628 40.0596C142.427 40.0596 143.939 40.6715 145.163 41.8954C145.761 42.4838 146.233 43.1888 146.549 43.9667C146.865 44.7446 147.018 45.5791 146.998 46.4184C147 46.601 146.983 46.891 146.951 47.2903Z" fill="#FD0100"/>
<defs>
<radialGradient id="paint0_radial_0_15" cx="0" cy="0" r="1" gradientUnits="userSpaceOnUse" gradientTransform="translate(133.822 13.9948) scale(12.5658 12.5658)">
<stop stop-color="#34E1FF"/>
<stop offset="1" stop-color="#4138FF"/>
</radialGradient>
</defs>
</svg>
