<svg width="23" height="18" viewBox="0 0 23 18" fill="none" xmlns="http://www.w3.org/2000/svg">
<path d="M16.9307 3.4834H1.69307C0.758015 3.4834 0 4.20552 0 5.09631V16.3867C0 17.2775 0.758015 17.9996 1.69307 17.9996H16.9307C17.8658 17.9996 18.6238 17.2775 18.6238 16.3867V5.09631C18.6238 4.20552 17.8658 3.4834 16.9307 3.4834Z" fill="#717173"/>
<path d="M20.5352 0H4.45103C4.22651 0 4.01119 0.0849659 3.85244 0.236206C3.69368 0.387446 3.60449 0.592571 3.60449 0.806456C3.60449 1.02034 3.69368 1.22547 3.85244 1.37671C4.01119 1.52795 4.22651 1.61291 4.45103 1.61291H20.5352V13.7098C20.5352 13.9236 20.6244 14.1288 20.7832 14.28C20.9419 14.4312 21.1573 14.5162 21.3818 14.5162C21.6063 14.5162 21.8216 14.4312 21.9804 14.28C22.1391 14.1288 22.2283 13.9236 22.2283 13.7098V1.61291C22.2278 1.18529 22.0493 0.775325 21.7319 0.472951C21.4145 0.170578 20.9841 0.000489053 20.5352 0Z" fill="#717173"/>
</svg>
