<svg width="42" height="42" viewBox="0 0 42 42" fill="none" xmlns="http://www.w3.org/2000/svg">
<rect width="42" height="42" rx="5" fill="url(#paint0_linear_1_104)"/>
<path d="M34.5737 23.2257C34.4258 22.178 33.9662 21.1637 33.9659 20.1056C33.9654 18.0281 33.9644 14.7602 33.9644 12.6642C33.9644 10.7759 32.4366 9.24808 30.5484 9.24808L21.4482 9.25161C14.8987 9.09883 9.42236 13.8759 8.49208 20.1574C8.34228 21.1689 7.91598 22.1461 7.75007 23.1551C7.72147 23.329 7.70654 23.5075 7.70654 23.6896C7.70654 24.3087 7.87412 24.8809 8.16217 25.37C9.41734 27.5008 12.5178 28.7134 14.3415 30.3838C16.1008 31.9952 18.4358 33.0084 21.0139 33.0447C21.0614 33.0447 21.1106 33.0464 21.1581 33.0464C23.8058 33.0464 26.196 32.0325 27.9856 30.3932C29.8112 28.721 32.9133 27.4954 34.1584 25.3556C34.4419 24.8684 34.6062 24.3006 34.6062 23.6896C34.6062 23.5321 34.5951 23.3772 34.5737 23.2257ZM8.23398 23.6896C8.23398 23.0559 8.4464 22.4689 8.80386 21.998C9.70328 20.8132 10.9641 22.1676 11.0704 23.6513C11.1768 25.1363 10.1484 26.7316 9.08142 25.6933C8.56254 25.1884 8.23398 24.4818 8.23398 23.6896ZM21.021 32.5172C13.5682 32.4135 8.90912 23.9216 13.2166 17.5677C14.173 16.1559 16.0138 15.5616 17.6893 16.1102C20.1226 16.9066 22.4574 16.9453 24.6305 16.2262C26.3939 15.6443 28.298 16.2966 29.2597 17.8156C30.2301 19.3452 30.7418 21.1139 30.7418 22.9336C30.7418 28.2818 26.3728 32.5963 21.021 32.5172ZM33.7006 25.094C32.7482 26.7265 31.2692 24.8235 31.2692 22.9335C31.2692 21.8421 32.1163 20.8007 32.9807 21.4671C33.6409 21.976 34.0787 22.7767 34.0787 23.6895C34.0787 24.2052 33.9399 24.6837 33.7006 25.094Z" fill="white"/>
<path d="M16.7908 21.325C16.0338 21.325 15.418 21.9409 15.418 22.6979C15.418 22.8435 15.5361 22.9616 15.6817 22.9616C15.8273 22.9616 15.9454 22.8435 15.9454 22.6979C15.9454 22.2317 16.3247 21.8525 16.7908 21.8525C17.257 21.8525 17.6363 22.2317 17.6363 22.6979C17.6363 22.8435 17.7544 22.9616 17.9 22.9616C18.0456 22.9616 18.1637 22.8435 18.1637 22.6979C18.1637 21.9409 17.5478 21.325 16.7908 21.325Z" fill="white"/>
<path d="M25.5235 21.325C24.7665 21.325 24.1506 21.9409 24.1506 22.6979C24.1506 22.8435 24.2688 22.9616 24.4144 22.9616C24.5599 22.9616 24.6781 22.8435 24.6781 22.6979C24.6781 22.2317 25.0573 21.8525 25.5235 21.8525C25.9897 21.8525 26.3689 22.2317 26.3689 22.6979C26.3689 22.8435 26.4871 22.9616 26.6327 22.9616C26.7782 22.9616 26.8964 22.8435 26.8964 22.6979C26.8964 21.9409 26.2805 21.325 25.5235 21.325Z" fill="white"/>
<path d="M22.0926 25.1379C21.5765 25.6537 20.7374 25.6537 20.2216 25.1379C20.1186 25.0349 19.9517 25.0349 19.8487 25.1379C19.7457 25.2408 19.7457 25.4079 19.8487 25.5108C20.2093 25.8716 20.6832 26.052 21.157 26.052C21.6307 26.052 22.1048 25.8716 22.4655 25.5108C22.5685 25.408 22.5685 25.2409 22.4655 25.1379C22.3625 25.0349 22.1956 25.0349 22.0926 25.1379Z" fill="white"/>
<defs>
<linearGradient id="paint0_linear_1_104" x1="8.3125" y1="7.65625" x2="33.25" y2="39.1563" gradientUnits="userSpaceOnUse">
<stop stop-color="#340112"/>
<stop offset="1" stop-color="#6E0000"/>
</linearGradient>
</defs>
</svg>
