<svg width="26" height="26" viewBox="0 0 26 26" fill="none" xmlns="http://www.w3.org/2000/svg">
<path d="M13 14C6.37292 14 1 18.9248 1 25H25C25 18.9248 19.6271 14 13 14Z" fill="white"/>
<path fill-rule="evenodd" clip-rule="evenodd" d="M1.46954 24.6665H24.5299C24.1345 19.4865 19.162 15.3335 13 15.3335C6.83854 15.3335 1.8655 19.487 1.46954 24.6665ZM0 25.3335C0 19.0365 5.86246 14 13 14C20.1381 14 26 19.0365 26 25.3335V26H0V25.3335Z" fill="white"/>
<path d="M19 7.5C19 11.0898 16.3137 14 13 14C9.68634 14 7 11.0898 7 7.5C7 3.9102 9.68634 1 13 1C16.3137 1 19 3.9102 19 7.5Z" fill="white"/>
<path fill-rule="evenodd" clip-rule="evenodd" d="M13 1.45618C9.93791 1.45618 7.45569 3.9383 7.45569 6.99973C7.45569 10.0617 9.93791 12.5438 13 12.5438C16.0621 12.5438 18.5443 10.0617 18.5443 6.99973C18.5443 3.9383 16.0621 1.45618 13 1.45618ZM6 6.99973C6 3.13404 9.13417 0 13 0C16.8658 0 20 3.13404 20 6.99973C20 10.866 16.8658 14 13 14C9.13417 14 6 10.8654 6 6.99973Z" fill="white"/>
</svg>
